# xmcd
#
# Track frame offsets:
#	150
#	21212
#	38341
#	51485
#	65454
#	83081
#	97851
#	115408
#	131797
#	148268
#	165480
#	183704
#	198840
#	219003
#
# Disc length: 3089 seconds
#
# Revision: 1
# Processed by: cddbd v1.5.1PL2 Copyright (c) Steve Scherf et al.
# Submitted via: audiograbber 1.83.01
#
DISCID=bf0c0f0e
DTITLE=Gunter Gabriel - Hey Boss ... Meine Songs
DYEAR=2004
DGENRE=Country
TTITLE0=Er ist ein Kerl (Der 30-Tonner Diesel)
TTITLE1=Komm unter meine Decke
TTITLE2=Papa trinkt Bier
TTITLE3=Ohne Moos nichts los
TTITLE4=Rheinhausen, du darfst nicht untergeh'n
TTITLE5=Deutschland ist ...
TTITLE6=Mit dem Hammer in der Hand
TTITLE7=Willy Klein, der Fernsehmann
TTITLE8=Ich bin CB-Funker
TTITLE9=Hey Yvonne
TTITLE10=Intercity Linie Nummer 4
TTITLE11=Alles Gute
TTITLE12=Mädchen ab 30
TTITLE13=Hey Boss, ich brauch mehr Geld
EXTD=
EXTT0=
EXTT1=
EXTT2=
EXTT3=
EXTT4=
EXTT5=
EXTT6=
EXTT7=
EXTT8=
EXTT9=
EXTT10=
EXTT11=
EXTT12=
EXTT13=
PLAYORDER=
